<svg width="140" height="176" viewBox="0 0 231.91 292"><defs><linearGradient id="a" x1="1" y1=".439" x2=".369" y2="1" gradientUnits="objectBoundingBox"><stop offset="0" stop-color="#029477"/><stop offset="1" stop-color="#009e7f"/></linearGradient></defs><g data-name="no cart in bag 2" transform="translate(-1388 -351)"><ellipse data-name="Ellipse 2873" cx="115.955" cy="27.366" rx="115.955" ry="27.366" transform="translate(1388 588.268)" fill="#ddd" opacity=".25"/><path data-name="Path 18691" d="M1432.632 381h140.736A29.828 29.828 0 0 1 1603 411.021v179.958A29.828 29.828 0 0 1 1573.368 621h-140.736A29.828 29.828 0 0 1 1403 590.979V411.021A29.828 29.828 0 0 1 1432.632 381Z" fill="#009e7f"/><path data-name="Rectangle 1852" d="M1433 381h140a30 30 0 0 1 30 30 30 30 0 0 1-30 30h-157.143A12.857 12.857 0 0 1 1403 428.143V411a30 30 0 0 1 30-30Z" fill="#006854"/><path data-name="Rectangle 1853" d="M1445 381h116a42 42 0 0 1 42 42 18 18 0 0 1-18 18h-164a18 18 0 0 1-18-18 42 42 0 0 1 42-42Z" fill="#006854"/><path data-name="Path 18685" d="M1503 411a30 30 0 1 1 30-30 30.034 30.034 0 0 1-30 30Zm0-53.294A23.3 23.3 0 1 0 1526.59 381a23.471 23.471 0 0 0-23.59-23.294Z" fill="#006854"/><path data-name="Path 18686" d="M1504.103 470.865a30 30 0 1 1 30-30 30.034 30.034 0 0 1-30 30Zm0-53.294a23.3 23.3 0 1 0 23.59 23.294 23.471 23.471 0 0 0-23.59-23.294Z" fill="#009e7f"/><circle data-name="Ellipse 2874" cx="28.689" cy="28.689" r="28.689" transform="translate(1473.823 511.046)" fill="#006854"/><circle data-name="Ellipse 2875" cx="15.046" cy="15.046" r="15.046" transform="rotate(-45 1402.019 -1514.282)" fill="#009e7f"/><path data-name="Path 18687" d="M1460.289 495.567a71.755 71.755 0 0 1 12.65-13.6c3.4-2.863-1.5-7.726-4.882-4.882a78.392 78.392 0 0 0-13.73 15c-2.56 3.644 3.424 7.1 5.962 3.485Z" fill="#006854"/><path data-name="Path 18688" d="M1473.479 492.082a78.419 78.419 0 0 0-13.73-15c-3.38-2.843-8.289 2.017-4.882 4.882a71.785 71.785 0 0 1 12.65 13.6c2.535 3.609 8.525.162 5.962-3.485Z" fill="#006854"/><path data-name="Path 18689" d="M1553.582 492.082a78.417 78.417 0 0 0-13.73-15c-3.38-2.843-8.289 2.017-4.882 4.882a71.768 71.768 0 0 1 12.65 13.6c2.535 3.609 8.525.162 5.962-3.485Z" fill="#006854"/><path data-name="Path 18690" d="M1540.393 495.567a71.77 71.77 0 0 1 12.65-13.6c3.4-2.863-1.5-7.726-4.882-4.882a78.407 78.407 0 0 0-13.73 15c-2.56 3.644 3.424 7.1 5.962 3.485Z" fill="#006854"/><path data-name="Path 18692" d="M301.243 287.464a19.115 19.115 0 0 1 8.071 9.077 19.637 19.637 0 0 1 1.6 7.88v26.085a19.349 19.349 0 0 1-9.672 16.957c-10.048-6.858-16.544-17.742-16.544-30s6.502-23.141 16.545-29.999Z" transform="translate(1292.301 101.536)" fill="url(#a)"/><path data-name="Path 18693" d="M294.371 287.464a19.115 19.115 0 0 0-8.071 9.077 19.637 19.637 0 0 0-1.6 7.88v26.085a19.349 19.349 0 0 0 9.672 16.957c10.048-6.858 16.544-17.742 16.544-30s-6.497-23.141-16.545-29.999Z" transform="translate(1118.301 101.536)" fill="url(#a)"/></g></svg>