<svg width="343" height="93" viewBox="0 0 343 93" fill="none" xmlns="http://www.w3.org/2000/svg">
<path d="M16.7019 93C11.5297 93 7.43502 90.7374 4.41791 86.2122C1.47264 81.7588 0 76.0485 0 69.0811C0 59.9589 2.55017 50.6212 7.65053 41.068C12.8227 31.5148 20.7965 23.2186 31.5719 16.1794C42.4191 9.14018 55.8524 4.97412 71.8718 3.68121L72.6261 3.57347C72.7698 3.28615 72.9853 2.78335 73.2726 2.06507C73.6318 1.34678 73.991 0.808071 74.3502 0.448929C74.7094 0.0897865 75.1404 -0.0538709 75.6432 0.0179567C76.7208 0.161612 77.6906 0.413011 78.5526 0.772153C79.4865 1.1313 80.5999 1.67001 81.893 2.3883C86.706 1.8855 91.3394 1.6341 95.7932 1.6341C100.247 1.6341 104.342 1.81367 108.077 2.17281C109.442 2.24464 110.124 2.85518 110.124 4.00444C110.124 5.08187 109.55 6.44661 108.4 8.09867C107.251 9.75072 105.922 11.2232 104.414 12.5161C102.977 13.7372 101.935 14.3118 101.289 14.24C96.6193 13.7372 92.6684 13.4858 89.4357 13.4858C86.5623 13.4858 83.4374 13.6654 80.0611 14.0245C79.5583 14.9583 78.6603 16.5744 77.3673 18.8729C76.1461 21.0996 74.5298 24.0805 72.5184 27.8156L62.0662 46.7783C56.032 57.5526 50.9317 66.0284 46.7652 72.2056C42.5987 78.3829 38.0371 83.375 33.0804 87.1819C28.1238 91.0606 22.6642 93 16.7019 93ZM14.008 87.5051C19.683 87.5051 25.3581 83.9496 31.0331 76.8386C36.78 69.6557 42.8142 60.3539 49.1358 48.9332L53.9847 39.8828C62.7487 23.5059 67.0948 15.4252 67.0229 15.6407C51.7219 17.4364 39.2583 21.2074 29.6323 26.9537C20.0063 32.6999 13.0741 39.2722 8.83582 46.6706C4.5975 54.0689 2.47834 61.3595 2.47834 68.5424C2.47834 72.1338 2.98119 75.3661 3.98689 78.2392C4.9926 81.1124 6.35748 83.375 8.08154 85.027C9.87744 86.6791 11.8529 87.5051 14.008 87.5051Z" fill="#EE5A24"/>
<path d="M73.8358 85.458C67.6579 85.458 64.569 82.2616 64.569 75.8689C64.569 71.4155 66.0057 65.5974 68.8791 58.4146C70.8187 53.5302 73.3689 48.9691 76.5297 44.7312C79.7623 40.4215 83.2104 36.9737 86.874 34.3879C90.6095 31.8021 94.1654 30.5092 97.5417 30.5092C100.559 30.5092 102.822 31.5507 104.33 33.6337C105.839 35.7167 106.593 38.4462 106.593 41.8222C106.593 45.4854 105.731 49.3282 104.007 53.3506C99.6968 63.4785 94.8838 71.3796 89.5679 77.0541C84.252 82.6567 79.008 85.458 73.8358 85.458ZM72.866 80.7173C75.1648 80.7173 78.4692 77.8083 82.7794 71.9901C87.0895 66.172 90.9687 59.7075 94.4168 52.5964C97.9368 45.4854 99.6968 40.4215 99.6968 37.4047C99.6968 35.8963 99.1939 35.1421 98.1882 35.1421C95.6021 35.1421 92.1899 38.0512 87.9516 43.8693C83.7133 49.6156 79.87 56.0442 76.4219 63.1552C73.0456 70.2663 71.3575 75.3661 71.3575 78.4547C71.3575 79.9631 71.8603 80.7173 72.866 80.7173Z" fill="#EE5A24"/>
<path d="M110.245 85.458C104.067 85.458 100.978 82.2616 100.978 75.8689C100.978 71.4155 102.415 65.5974 105.288 58.4146C107.228 53.5302 109.778 48.9691 112.939 44.7312C116.171 40.4215 119.619 36.9737 123.283 34.3879C127.019 31.8021 130.574 30.5092 133.951 30.5092C136.968 30.5092 139.231 31.5507 140.739 33.6337C142.248 35.7167 143.002 38.4462 143.002 41.8222C143.002 45.4854 142.14 49.3282 140.416 53.3506C136.106 63.4785 131.293 71.3796 125.977 77.0541C120.661 82.6567 115.417 85.458 110.245 85.458ZM109.275 80.7173C111.574 80.7173 114.878 77.8083 119.188 71.9901C123.499 66.172 127.378 59.7075 130.826 52.5964C134.346 45.4854 136.106 40.4215 136.106 37.4047C136.106 35.8963 135.603 35.1421 134.597 35.1421C132.011 35.1421 128.599 38.0512 124.361 43.8693C120.122 49.6156 116.279 56.0442 112.831 63.1552C109.455 70.2663 107.767 75.3661 107.767 78.4547C107.767 79.9631 108.269 80.7173 109.275 80.7173Z" fill="#EE5A24"/>
<path d="M155.044 85.2425C148.004 85.2425 144.484 82.6926 144.484 77.5928C144.484 74.3605 145.849 70.4099 148.578 65.7411C151.308 61.0722 154.72 56.4034 158.815 51.7345C162.981 47.0656 167.04 43.1869 170.991 40.0983C170.704 39.5955 169.626 39.1645 167.758 38.8054C165.891 38.4462 164.059 38.2666 162.263 38.2666C161.114 38.2666 160.144 38.3744 159.354 38.5899C159.138 39.0208 157.701 42.0376 155.044 47.6403C152.457 53.1711 148.937 58.5223 144.484 63.6939C144.124 64.1249 143.765 64.3404 143.406 64.3404C143.047 64.3404 142.724 64.1249 142.436 63.6939C142.221 63.1911 142.113 62.5806 142.113 61.8623C142.113 60.7131 142.472 59.7434 143.191 58.9533L144.376 57.1216C146.315 54.1048 148.004 51.2676 149.44 48.61C150.949 45.8805 152.314 42.7918 153.535 39.3441C153.032 39.9905 152.314 40.3138 151.38 40.3138C150.877 40.3138 150.518 40.206 150.302 39.9905C149.153 38.6258 148.578 37.2251 148.578 35.7886C148.578 34.0647 149.368 32.5922 150.949 31.3711C152.529 30.0782 154.253 29.4317 156.121 29.4317C158.492 29.4317 160.288 30.4733 161.509 32.5563C162.083 32.5563 162.91 32.4485 163.987 32.2331C165.136 31.9457 165.999 31.7303 166.573 31.5866C170.596 30.4373 173.972 29.8627 176.702 29.8627C177.851 29.8627 178.965 29.9705 180.042 30.1859C181.407 30.4732 182.449 31.1556 183.167 32.2331C183.886 33.2387 184.245 34.4238 184.245 35.7886C184.245 36.866 184.029 37.9075 183.598 38.9131C183.167 39.8469 182.521 40.637 181.659 41.2834C178.426 43.8693 174.762 47.4966 170.668 52.1655C166.573 56.7625 163.053 61.3236 160.108 65.8488C157.235 70.3022 155.798 73.714 155.798 76.0844C155.798 78.0956 156.947 79.1012 159.246 79.1012C160.754 79.1012 163.053 77.5209 166.142 74.3605C169.303 71.1282 172.536 67.3213 175.84 62.9398C179.144 58.5582 181.659 54.859 183.383 51.8422C184.245 51.6986 184.963 51.7704 185.538 52.0577C186.184 52.345 186.759 52.8478 187.262 53.5661C182.377 61.6109 176.846 68.9015 170.668 75.4379C164.562 81.9743 159.354 85.2425 155.044 85.2425Z" fill="#EE5A24"/>
<path d="M207.092 25.0143C204.29 25.0143 202.89 23.9369 202.89 21.782C202.89 20.4891 203.428 19.0884 204.506 17.58C205.583 16.0716 206.984 14.7787 208.708 13.7013C210.432 12.6239 212.228 12.0851 214.096 12.0851C217.113 12.0851 218.622 13.1267 218.622 15.2097C218.622 16.4308 218.047 17.8314 216.898 19.4117C215.748 20.9919 214.276 22.3207 212.48 23.3981C210.684 24.4756 208.888 25.0143 207.092 25.0143ZM175.628 85.1348C172.467 85.1348 170.887 83.3391 170.887 79.7476C170.887 76.4435 172.144 71.9542 174.658 66.2798C177.172 60.6053 180.369 54.7154 184.248 48.61C188.127 42.5045 191.935 37.1892 195.67 32.664C196.819 31.2275 198.544 30.5092 200.842 30.5092C202.351 30.5092 203.68 30.8683 204.829 31.5866C206.05 32.3049 206.661 33.2027 206.661 34.2802C206.661 35.1421 206.266 36.0041 205.476 36.866C202.387 40.1701 198.903 44.5876 195.024 50.1184C191.144 55.6492 187.84 61.0004 185.11 66.172C182.452 71.2719 181.123 74.8992 181.123 77.0541C181.123 78.347 181.662 78.9934 182.74 78.9934C184.248 78.9934 186.511 77.485 189.528 74.4682C192.617 71.4514 195.778 67.7882 199.01 63.4785C202.315 59.0969 204.937 55.1823 206.877 51.7345C207.739 51.5908 208.457 51.6627 209.032 51.95C209.678 52.2373 210.253 52.7401 210.756 53.4584C205.583 62.0778 199.908 69.5121 193.731 75.7611C187.624 82.0102 181.59 85.1348 175.628 85.1348Z" fill="#EE5A24"/>
<path d="M196.834 76.8386C195.038 74.1809 194.14 71.4155 194.14 68.5424C194.14 65.9565 194.822 63.8017 196.187 62.0778C197.624 60.2821 199.527 59.3483 201.898 59.2765C207.645 49.436 213.104 41.9299 218.277 36.7582C223.449 31.5148 228.19 28.893 232.5 28.893C234.368 28.893 235.876 29.4677 237.026 30.6169C238.175 31.6943 238.75 33.095 238.75 34.8189C238.75 35.7527 238.642 36.3991 238.427 36.7582C238.283 37.0456 237.995 37.297 237.564 37.5124C237.133 37.6561 236.738 37.8357 236.379 38.0512C233.434 39.9187 231.351 42.5404 230.129 45.9164C228.908 49.2205 228.298 53.9612 228.298 60.1384C228.298 65.0946 227.472 69.5121 225.819 73.3908C224.167 77.1977 221.976 80.1427 219.246 82.2257C216.588 84.3087 213.715 85.3503 210.626 85.3503C208.184 85.3503 205.777 84.6679 203.406 83.3031C201.036 81.8666 198.845 79.7117 196.834 76.8386ZM208.686 79.1012C211.775 79.1012 214.254 77.09 216.121 73.0676C218.061 69.0452 219.031 64.4841 219.031 59.3842C219.031 55.8646 219.174 52.6683 219.462 49.7951C219.749 46.922 219.893 45.2699 219.893 44.839C217.594 46.1319 215.044 48.5381 212.242 52.0577C209.513 55.5055 206.388 59.887 202.868 65.2023L199.743 69.8353C199.815 71.3437 200.318 72.8162 201.251 74.2527C202.185 75.6893 203.335 76.8745 204.7 77.8083C206.064 78.6702 207.393 79.1012 208.686 79.1012Z" fill="#EE5A24"/>
<path d="M238.094 85.1348C232.706 85.1348 230.012 83.0158 230.012 78.7779C230.012 75.9766 231.198 72.1338 233.568 67.2495C237.088 59.9948 240.572 53.2788 244.02 47.1016C247.469 40.9243 251.635 34.2443 256.52 27.0614H252.749C252.102 27.0614 251.779 26.7023 251.779 25.984C251.779 25.3375 252.03 24.6551 252.533 23.9369C253.036 23.2186 253.611 22.8235 254.257 22.7517H259.537C263.847 16.6463 268.445 10.5767 273.329 4.54315C274.407 3.17841 275.987 2.49604 278.071 2.49604C279.436 2.49604 280.621 2.85518 281.627 3.57347C282.704 4.21992 283.243 5.04595 283.243 6.05155C283.243 6.84166 282.812 7.73952 281.95 8.74512C279.148 11.9056 275.485 16.5744 270.959 22.7517H279.471C280.046 22.7517 280.334 23.1467 280.334 23.9369C280.334 24.6551 280.082 25.3734 279.579 26.0917C279.076 26.7382 278.43 27.0614 277.64 27.0614H267.942C260.83 37.1892 254.473 47.1734 248.869 57.0139C243.338 66.7826 240.572 73.3908 240.572 76.8386C240.572 78.347 241.147 79.1012 242.296 79.1012C243.805 79.1012 246.104 77.485 249.193 74.2527C252.353 71.0205 255.586 67.2135 258.89 62.832C262.195 58.4505 264.673 54.7872 266.326 51.8422C267.978 51.5549 269.271 52.1296 270.205 53.5661C256.915 74.6119 246.211 85.1348 238.094 85.1348Z" fill="#EE5A24"/>
<path d="M265.983 85.458C259.805 85.458 256.716 82.2616 256.716 75.8689C256.716 71.4155 258.153 65.5974 261.026 58.4146C262.966 53.5302 265.516 48.9691 268.677 44.7312C271.909 40.4215 275.357 36.9737 279.021 34.3879C282.757 31.8021 286.312 30.5092 289.689 30.5092C292.706 30.5092 294.969 31.5507 296.477 33.6337C297.986 35.7167 298.74 38.4462 298.74 41.8222C298.74 45.4854 297.878 49.3282 296.154 53.3506C291.844 63.4785 287.031 71.3796 281.715 77.0541C276.399 82.6567 271.155 85.458 265.983 85.458ZM265.013 80.7173C267.312 80.7173 270.616 77.8083 274.926 71.9901C279.237 66.172 283.116 59.7075 286.564 52.5964C290.084 45.4854 291.844 40.4215 291.844 37.4047C291.844 35.8963 291.341 35.1421 290.335 35.1421C287.749 35.1421 284.337 38.0512 280.099 43.8693C275.86 49.6156 272.017 56.0442 268.569 63.1552C265.193 70.2663 263.505 75.3661 263.505 78.4547C263.505 79.9631 264.007 80.7173 265.013 80.7173Z" fill="#EE5A24"/>
<path d="M310.782 85.2425C303.742 85.2425 300.222 82.6926 300.222 77.5928C300.222 74.3605 301.587 70.4099 304.316 65.7411C307.046 61.0722 310.458 56.4034 314.553 51.7345C318.719 47.0656 322.778 43.1869 326.729 40.0983C326.442 39.5955 325.364 39.1645 323.497 38.8054C321.629 38.4462 319.797 38.2666 318.001 38.2666C316.852 38.2666 315.882 38.3744 315.092 38.5899C314.876 39.0208 313.439 42.0376 310.782 47.6403C308.195 53.1711 304.676 58.5223 300.222 63.6939C299.862 64.1249 299.503 64.3404 299.144 64.3404C298.785 64.3404 298.462 64.1249 298.174 63.6939C297.959 63.1911 297.851 62.5806 297.851 61.8623C297.851 60.7131 298.21 59.7434 298.929 58.9533L300.114 57.1216C302.053 54.1048 303.742 51.2676 305.178 48.61C306.687 45.8805 308.052 42.7918 309.273 39.3441C308.77 39.9905 308.052 40.3138 307.118 40.3138C306.615 40.3138 306.256 40.206 306.04 39.9905C304.891 38.6258 304.316 37.2251 304.316 35.7886C304.316 34.0647 305.107 32.5922 306.687 31.3711C308.267 30.0782 309.991 29.4317 311.859 29.4317C314.23 29.4317 316.026 30.4733 317.247 32.5563C317.822 32.5563 318.648 32.4485 319.725 32.2331C320.875 31.9457 321.737 31.7303 322.311 31.5866C326.334 30.4373 329.71 29.8627 332.44 29.8627C333.589 29.8627 334.703 29.9705 335.78 30.1859C337.145 30.4732 338.187 31.1556 338.905 32.2331C339.624 33.2387 339.983 34.4238 339.983 35.7886C339.983 36.866 339.767 37.9075 339.336 38.9131C338.905 39.8469 338.259 40.637 337.397 41.2834C334.164 43.8693 330.501 47.4966 326.406 52.1655C322.311 56.7625 318.791 61.3236 315.846 65.8488C312.973 70.3022 311.536 73.714 311.536 76.0844C311.536 78.0956 312.685 79.1012 314.984 79.1012C316.493 79.1012 318.791 77.5209 321.88 74.3605C325.041 71.1282 328.274 67.3213 331.578 62.9398C334.883 58.5582 337.397 54.859 339.121 51.8422C339.983 51.6986 340.701 51.7704 341.276 52.0577C341.922 52.345 342.497 52.8478 343 53.5661C338.115 61.6109 332.584 68.9015 326.406 75.4379C320.3 81.9743 315.092 85.2425 310.782 85.2425Z" fill="#EE5A24"/>
</svg>
