<svg width="19" height="21" viewBox="0 0 19 21" fill="none" xmlns="http://www.w3.org/2000/svg">
<path d="M3.25 20.9167H16.7917C17.3442 20.9167 17.8741 20.6972 18.2648 20.3065C18.6555 19.9158 18.875 19.3859 18.875 18.8334V2.16671C18.875 1.61417 18.6555 1.08427 18.2648 0.693568C17.8741 0.302867 17.3442 0.083374 16.7917 0.083374H2.20833C1.6558 0.083374 1.12589 0.302867 0.735194 0.693568C0.344493 1.08427 0.125 1.61417 0.125 2.16671V18.8334C0.125 19.3859 0.344493 19.9158 0.735194 20.3065C1.12589 20.6972 1.6558 20.9167 2.20833 20.9167H3.25ZM9.5 3.20733C11.2156 3.20733 12.625 4.61462 12.625 6.33233C12.625 8.049 11.2156 9.45837 9.5 9.45837C7.78437 9.45837 6.375 8.049 6.375 6.33233C6.375 4.61462 7.78437 3.20733 9.5 3.20733V3.20733ZM3.25 15.9688C3.25 13.6573 6.06771 11.2813 9.5 11.2813C12.9323 11.2813 15.75 13.6573 15.75 15.9688V16.75H3.25V15.9688Z" fill="#353B48" fill-opacity="0.3"/>
</svg>
