<?xml version="1.0" encoding="utf-8"?>
<!-- Generator: Adobe Illustrator 26.0.1, SVG Export Plug-In . SVG Version: 6.00 Build 0)  -->
<svg version="1.1" id="Layer_1" xmlns="http://www.w3.org/2000/svg" xmlns:xlink="http://www.w3.org/1999/xlink" x="0px" y="0px"
	 viewBox="0 0 180 309.7" style="enable-background:new 0 0 180 309.7;" xml:space="preserve">
<style type="text/css">
	.st0{fill:#EE5A24;}
	.st1{opacity:0.1;fill:#460100;enable-background:new    ;}
	.st2{fill:#AF3814;}
	.st3{fill:#D34B22;}
	.st4{fill:#67251D;}
	.st5{opacity:0.2;}
	.st6{fill:#460100;}
	.st7{fill:#FCC89D;}
	.st8{fill:#995B47;}
	.st9{fill:#C6441C;}
	.st10{opacity:0.3;fill:#212121;enable-background:new    ;}
	.st11{opacity:0.15;fill:#212121;enable-background:new    ;}
</style>
<g>
	<g>
		<g>
			<g>
				<path class="st0" d="M99.5,309.7l63.6-36.8l-50.9-33.5L99.5,309.7z"/>
				<path class="st0" d="M34.1,113.5l32.9-0.1l1.3-20.2l79.5,45.8l-34.4,1.1v19.2L34.1,113.5z"/>
				<path class="st1" d="M111.3,175.8L68.9,94.2l-2.3,22l1.4,59.6L111.3,175.8z"/>
				<path class="st2" d="M43.2,161.3L33,113.9l34.6-0.1V151L43.2,161.3z"/>
				<path class="st3" d="M163.1,273L114,250.8l-1.1-37.6l1.1-72.5l36-1.1L163.1,273z"/>
				<path class="st0" d="M99.5,309.7l9.6-70.3l4.9-79.1l-82.1-47.4L17.4,262.3L99.5,309.7z"/>
				<path class="st4" d="M90.8,172.6c-0.4,1.9-2.2,2.6-3.9,1.5c-1.8-1.2-2.8-3.4-2.4-5.6c0.4-1.9,2.2-2.6,3.9-1.5
					C90.2,168.3,91.1,170.5,90.8,172.6z"/>
				<path class="st4" d="M57,153.1c-0.4,1.9-2.2,2.6-3.9,1.5c-1.8-1.2-2.8-3.4-2.4-5.6c0.4-1.9,2.2-2.6,3.9-1.5
					C56.4,148.8,57.3,150.9,57,153.1z"/>
				<g class="st5">
					<path class="st6" d="M71.5,229.2c-3,0-5.9-0.8-8.4-2.3c-9.6-5.5-15.1-16.2-14.1-27.2l4.4-45.2c0.1-1.3,1.3-2.3,2.6-2.2
						c1.3,0.1,2.3,1.3,2.2,2.6l-4.4,45.2c-0.9,9.1,3.7,18,11.6,22.6c5.7,3.4,13.1,1.4,16.5-4.3c0.9-1.5,1.4-3.2,1.6-4.9l3.8-39.4
						c0.1-1.3,1.3-2.3,2.6-2.2c1.3,0.1,2.3,1.3,2.2,2.6l-3.8,39.4C87.5,222.6,80.2,229.2,71.5,229.2z"/>
				</g>
				<path class="st7" d="M67.8,92.1l-1.3,20.6l-34.6,0.1l82.1,47.4v-19.6l36-1.1L67.8,92.1z M112.8,139.5v18.7l-76.4-44.1l31.2-0.1
					l1.3-19.8l76.8,44.3L112.8,139.5z"/>
				<g>
					<path class="st8" d="M69.3,226.5c-3,0-5.9-0.8-8.4-2.3c-9.6-5.5-15.1-16.2-14.1-27.2l4.4-45.2c0.1-1.3,1.3-2.3,2.6-2.2
						c1.3,0.1,2.3,1.3,2.2,2.6l-4.4,45.2c-0.9,9.1,3.7,18,11.6,22.6c5.7,3.4,13.1,1.4,16.5-4.3c0.9-1.5,1.4-3.2,1.6-4.9l3.8-39.4
						c0.1-1.3,1.3-2.3,2.6-2.2c1.3,0.1,2.3,1.3,2.2,2.6l-3.8,39.4C85.2,219.9,78,226.5,69.3,226.5z"/>
				</g>
				<path class="st9" d="M99.5,309.7l14.5-58.9v-90.5L99.5,309.7z"/>
			</g>
			<g>
				<path class="st10" d="M45.5,83.1c-0.1-0.5,0.2-0.9,0.5-1.1c0.1-0.1,0.2-0.2,0.3-0.3c-0.1-0.1-0.3-0.1-0.4-0.1
					c-0.3-0.1-0.9-0.2-1-0.7s0.2-0.9,0.5-1.1c0.1-0.1,0.2-0.2,0.3-0.3c-0.1-0.1-0.3-0.1-0.4-0.1c-0.3-0.1-0.9-0.2-1-0.7
					s0.2-0.9,0.5-1.1l0,0c0.1-0.1,0.2-0.3,0.3-0.5c0-0.1,0.1-0.3,0.3-0.3c0.2-0.1,0.4,0.1,0.5,0.3c0,0,0,0,0,0c0,0.4-0.2,0.8-0.5,1
					c-0.1,0.1-0.2,0.2-0.3,0.3c0.1,0.1,0.3,0.1,0.4,0.1c0.3,0.1,0.9,0.2,1,0.7s-0.2,0.9-0.5,1.1c-0.1,0.1-0.2,0.2-0.3,0.3
					c0.1,0.1,0.3,0.1,0.4,0.1c0.3,0.1,0.9,0.2,1,0.7s-0.2,0.9-0.5,1.1c-0.1,0.1-0.2,0.2-0.3,0.3c0.1,0,0.3,0.1,0.4,0.1
					c0.3,0.1,0.8,0.2,1,0.6c0.1,0.2,0,0.4-0.2,0.5c-0.2,0.1-0.3,0-0.5-0.1c-0.1-0.1-0.3-0.2-0.5-0.3C46.2,83.7,45.6,83.6,45.5,83.1z
					"/>
				<path class="st10" d="M132.7,96.9c0.1-0.5-0.2-0.9-0.5-1.1c-0.1-0.1-0.2-0.2-0.3-0.3c0.1-0.1,0.3-0.1,0.4-0.1
					c0.3-0.1,0.9-0.2,1-0.7s-0.2-0.9-0.5-1.1c-0.1-0.1-0.2-0.2-0.3-0.3c0.1-0.1,0.3-0.1,0.4-0.1c0.3-0.1,0.9-0.2,1-0.7
					s-0.2-0.9-0.5-1.1l0,0c-0.1-0.1-0.2-0.3-0.3-0.5c0-0.1-0.1-0.3-0.3-0.3c-0.2-0.1-0.4,0.1-0.5,0.3c0,0,0,0,0,0
					c0,0.4,0.2,0.8,0.5,1c0.1,0.1,0.2,0.2,0.3,0.3c-0.1,0.1-0.3,0.1-0.4,0.1c-0.3,0.1-0.9,0.2-1,0.7s0.2,0.9,0.5,1.1
					c0.1,0.1,0.2,0.2,0.3,0.3c-0.1,0.1-0.3,0.1-0.4,0.1c-0.3,0.1-0.9,0.2-1,0.7s0.2,0.9,0.5,1.1c0.1,0.1,0.2,0.2,0.3,0.3
					c-0.1,0-0.3,0.1-0.4,0.1c-0.3,0.1-0.8,0.2-1,0.6c-0.1,0.2,0,0.4,0.2,0.5c0.2,0.1,0.3,0,0.5-0.1c0.1-0.1,0.3-0.2,0.5-0.3
					C132.1,97.5,132.6,97.4,132.7,96.9z"/>
				<path class="st10" d="M0.2,126.9c-0.6-1.3,0-2.8,1.3-3.3c1.3-0.6,2.8,0,3.3,1.3s0,2.8-1.3,3.3c0,0,0,0,0,0
					C2.3,128.7,0.8,128.2,0.2,126.9z M4,125.2c-0.3-0.8-1.3-1.1-2-0.8c-0.8,0.3-1.1,1.3-0.8,2c0.3,0.8,1.3,1.1,2,0.8
					C3.9,126.9,4.3,126,4,125.2z"/>
				<path class="st10" d="M41.6,3.6c-0.6-1.3,0-2.8,1.3-3.3s2.8,0,3.3,1.3c0.6,1.3,0,2.8-1.3,3.3c0,0,0,0,0,0
					C43.6,5.4,42.1,4.8,41.6,3.6z M45.3,1.9c-0.3-0.8-1.3-1.1-2-0.8s-1.1,1.3-0.8,2c0.3,0.8,1.3,1.1,2,0.8
					C45.3,3.6,45.6,2.7,45.3,1.9z"/>
				<path class="st10" d="M96.4,58.5c-0.7,0.7-1.9,0.7-2.6-0.1c-0.7-0.7-0.7-1.8-0.1-2.5l-0.9-0.8c-1.1,1.3-1,3.2,0.2,4.3
					c1.2,1.1,3,1,4.2-0.1L96.4,58.5z"/>
				<path class="st11" d="M175.7,154.2c0.7,0.7,1.9,0.7,2.6-0.1c0.7-0.7,0.7-1.8,0.1-2.5l0.9-0.8c1.1,1.3,1,3.2-0.2,4.3
					c-1.2,1.1-3,1-4.2-0.1L175.7,154.2z"/>
				<path class="st10" d="M8.6,55.6l1-3l-3-1l0.3-0.9l3,1l1-3l0.9,0.3l-1,3l3,1l-0.3,0.9l-3-1l-1,3L8.6,55.6z"/>
				<path class="st10" d="M96.4,128.1l1-3l-3-1l0.3-0.9l3,1l1-3l0.9,0.3l-1,3l3,1l-0.3,0.9l-3-1l-1,3L96.4,128.1z"/>
				<path class="st10" d="M108.6,10.7l0.6-1.8l-1.8-0.6l0.2-0.5l1.8,0.6l0.6-1.8l0.5,0.2l-0.6,1.8l1.8,0.6l-0.2,0.5l-1.8-0.6
					l-0.6,1.8L108.6,10.7z"/>
			</g>
		</g>
	</g>
</g>
</svg>
