<?xml version="1.0" encoding="utf-8"?>
<!-- Generator: Adobe Illustrator 26.0.1, SVG Export Plug-In . SVG Version: 6.00 Build 0)  -->
<svg version="1.1" id="Layer_1" xmlns="http://www.w3.org/2000/svg" xmlns:xlink="http://www.w3.org/1999/xlink" x="0px" y="0px"
	 viewBox="0 0 300 300" style="enable-background:new 0 0 300 300;" xml:space="preserve">
<style type="text/css">
	.st0{opacity:0.25;fill:#DDDDDD;enable-background:new    ;}
	.st1{fill:#EE5A24;}
	.st2{fill:#B23D19;}
	.st3{fill:#CC4E27;}
	.st4{fill:#EA5A25;}
</style>
<g transform="translate(-1388 -351)">
	<ellipse class="st0" cx="1538" cy="622.9" rx="119.1" ry="28.1"/>
	<path class="st1" d="M1464.7,381.8h144.6c16.9,0.1,30.6,13.9,30.4,30.8v184.9c0.1,16.9-13.5,30.7-30.4,30.8h-144.6
		c-16.9-0.1-30.6-13.9-30.4-30.8V412.7C1434.2,395.7,1447.8,381.9,1464.7,381.8z"/>
	<path class="st2" d="M1465.1,381.8h143.8c17,0,30.8,13.8,30.8,30.8l0,0c0,17-13.8,30.8-30.8,30.8l0,0h-161.4
		c-7.3,0-13.2-5.9-13.2-13.2v-17.6C1434.3,395.6,1448.1,381.8,1465.1,381.8L1465.1,381.8z"/>
	<path class="st2" d="M1477.4,381.8h119.2c23.8,0,43.2,19.3,43.2,43.2c0,10.2-8.3,18.5-18.5,18.5h-168.5c-10.2,0-18.5-8.3-18.5-18.5
		C1434.3,401.1,1453.6,381.8,1477.4,381.8z"/>
	<path class="st3" d="M1537,412.6c-17,0-30.8-13.8-30.8-30.8c0-17,13.8-30.8,30.8-30.8c17,0,30.8,13.8,30.8,30.8
		C1567.8,398.8,1554,412.6,1537,412.6z M1537,357.9c-13.2,0.2-23.8,11-23.6,24.2c0.2,13.2,11,23.8,24.2,23.6
		c13.1-0.2,23.6-10.8,23.6-23.9C1561.2,368.5,1550.3,357.8,1537,357.9z"/>
	<path class="st4" d="M1538.2,474.1c-17,0-30.8-13.8-30.8-30.8c0-17,13.8-30.8,30.8-30.8c17,0,30.8,13.8,30.8,30.8
		C1569,460.3,1555.2,474.1,1538.2,474.1z M1538.2,419.4c-13.2,0.2-23.8,11-23.6,24.2c0.2,13.2,11,23.8,24.2,23.6
		c13.1-0.2,23.6-10.8,23.6-23.9C1562.3,430,1551.4,419.3,1538.2,419.4z"/>
	<circle class="st2" cx="1536.5" cy="544.9" r="29.5"/>
	<circle class="st4" cx="1536.7" cy="553.2" r="15.5"/>
	<path class="st2" d="M1493.1,499.5c3.7-5.2,8.1-9.9,13-14c3.5-2.9-1.5-7.9-5-5c-5.4,4.5-10.1,9.7-14.1,15.4
		C1484.4,499.7,1490.5,503.2,1493.1,499.5L1493.1,499.5z"/>
	<path class="st2" d="M1506.7,495.9c-4-5.7-8.8-10.9-14.1-15.4c-3.5-2.9-8.5,2.1-5,5c4.9,4.1,9.3,8.8,13,14
		C1503.2,503.2,1509.3,499.7,1506.7,495.9L1506.7,495.9z"/>
	<path class="st2" d="M1589,495.9c-4-5.7-8.8-10.9-14.1-15.4c-3.5-2.9-8.5,2.1-5,5c4.9,4.1,9.3,8.8,13,14
		C1585.5,503.2,1591.6,499.7,1589,495.9L1589,495.9z"/>
	<path class="st2" d="M1575.4,499.5c3.7-5.2,8.1-9.9,13-14c3.5-2.9-1.5-7.9-5-5c-5.4,4.5-10.1,9.7-14.1,15.4
		C1566.7,499.7,1572.8,503.2,1575.4,499.5L1575.4,499.5z"/>
	<path class="st4" d="M1630,390c3.7,2.1,6.6,5.4,8.3,9.3c1.1,2.6,1.7,5.3,1.6,8.1v26.8c0.1,7.2-3.7,13.8-9.9,17.4
		c-10.3-7-17-18.2-17-30.8S1619.7,397.1,1630,390L1630,390z"/>
	<path class="st4" d="M1444.2,390c-3.7,2.1-6.6,5.4-8.3,9.3c-1.1,2.6-1.7,5.3-1.6,8.1v26.8c-0.1,7.2,3.7,13.8,9.9,17.4
		c10.3-7,17-18.2,17-30.8S1454.5,397.1,1444.2,390L1444.2,390z"/>
</g>
</svg>
